<mxfile host="app.diagrams.net" modified="2023-07-27T22:34:52.751Z" agent="Mozilla/5.0 (X11; Linux x86_64) AppleWebKit/537.36 (KHTML, like Gecko) Chrome/114.0.0.0 Safari/537.36" version="21.6.5" etag="g3khFdwT1WvtB-nFcCf9" type="github">
  <diagram name="Page-1" id="xHoJqprVVUahzgXB5t3A">
    <mxGraphModel>
      <root>
        <mxCell id="0" />
        <mxCell id="1" parent="0" />
      </root>
    </mxGraphModel>
  </diagram>
</mxfile>
